HIERARCHY
ROOT Hips
{
	OFFSET -3.958830 18.904000 13.208200
	CHANNELS 6 Xposition Yposition Zposition Zrotation Yrotation Xrotation 
	JOINT LHipJoint
	{
		OFFSET 0.000000 0.000000 0.000000
		CHANNELS 3 Zrotation Yrotation Xrotation
		JOINT LeftUpLeg
		{
			OFFSET 1.800000 -1.400000 0.085000
			CHANNELS 3 Zrotation Yrotation Xrotation
			JOINT LeftLeg
			{
				OFFSET 2.215000 -6.000000 0.000000
				CHANNELS 3 Zrotation Yrotation Xrotation
				JOINT LeftFoot
				{
					OFFSET 2.500000 -6.900000 0.000000
					CHANNELS 3 Zrotation Yrotation Xrotation
					JOINT LeftToeBase
					{
						OFFSET 0.200000 -0.500000 1.950000
						CHANNELS 3 Zrotation Yrotation Xrotation
						End Site
						{
							OFFSET 0.000000 0.000000 0.000000
						}
					}
				}
			}
		}
	}
	JOINT RHipJoint
	{
		OFFSET 0.000000 0.000000 0.000000
		CHANNELS 3 Zrotation Yrotation Xrotation
		JOINT RightUpLeg
		{
			OFFSET -1.800000 -1.400000 0.085000
			CHANNELS 3 Zrotation Yrotation Xrotation
			JOINT RightLeg
			{
				OFFSET -2.215000 -6.000000 0.000000
				CHANNELS 3 Zrotation Yrotation Xrotation
				JOINT RightFoot
				{
					OFFSET -2.500000 -6.900000 0.000000
					CHANNELS 3 Zrotation Yrotation Xrotation
					JOINT RightToeBase
					{
						OFFSET -0.200000 -0.500000 1.950000
						CHANNELS 3 Zrotation Yrotation Xrotation
						End Site
						{
							OFFSET 0.000000 0.000000 0.000000
						}
					}
				}
			}
		}
	}
	JOINT LowerBack
	{
		OFFSET 0.000000 0.000000 0.000000
		CHANNELS 3 Zrotation Yrotation Xrotation
		JOINT Spine
		{
			OFFSET -0.087000 1.940000 -0.288900
			CHANNELS 3 Zrotation Yrotation Xrotation
			JOINT Spine1
			{
				OFFSET 0.000000 1.950000 0.060000
				CHANNELS 3 Zrotation Yrotation Xrotation
				JOINT Neck
				{
					OFFSET 0.000000 0.000000 0.000000
					CHANNELS 3 Zrotation Yrotation Xrotation
					JOINT Neck1
					{
						OFFSET 0.000000 1.600000 0.340000
						CHANNELS 3 Zrotation Yrotation Xrotation
						JOINT Head
						{
							OFFSET 0.000000 1.667000 -0.240000
							CHANNELS 3 Zrotation Yrotation Xrotation
							End Site
							{
								OFFSET 0.000000 0.000000 0.000000
							}
						}
					}
				}
				JOINT LeftShoulder
				{
					OFFSET 0.000000 0.000000 0.000000
					CHANNELS 3 Zrotation Yrotation Xrotation
					JOINT LeftArm
					{
						OFFSET 2.700000 1.550000 -0.730000
						CHANNELS 3 Zrotation Yrotation Xrotation
						JOINT LeftForeArm
						{
							OFFSET 5.450000 0.000000 0.000000
							CHANNELS 3 Zrotation Yrotation Xrotation
							JOINT LeftHand
							{
								OFFSET 3.450000 0.000000 0.000000
								CHANNELS 3 Zrotation Yrotation Xrotation
								JOINT LeftHandIndex1
								{
									OFFSET 0.750000 0.000000 0.000000
									CHANNELS 3 Zrotation Yrotation Xrotation
									End Site
									{
										OFFSET 0.000000 0.000000 0.000000
									}
								}
							}
						}
					}
				}
				JOINT RightShoulder
				{
					OFFSET 0.000000 0.000000 0.000000
					CHANNELS 3 Zrotation Yrotation Xrotation
					JOINT RightArm
					{
						OFFSET -2.700000 1.550000 -0.730000
						CHANNELS 3 Zrotation Yrotation Xrotation
						JOINT RightForeArm
						{
							OFFSET -5.450000 0.000000 0.000000
							CHANNELS 3 Zrotation Yrotation Xrotation
							JOINT RightHand
							{
								OFFSET -3.450000 0.000000 0.000000
								CHANNELS 3 Zrotation Yrotation Xrotation
								JOINT RightHandIndex1
								{
									OFFSET -0.750000 0.000000 0.000000
									CHANNELS 3 Zrotation Yrotation Xrotation
									End Site
									{
										OFFSET 0.000000 0.000000 0.000000
									}
								}
							}
						}
					}
				}
			}
		}
	}
}
MOTION
Frames: 11
Frame Time: 0.016667
-1.135710 17.768740 -3.253130 -24.954675 8.435308 -9.315241 -14.809284 10.151877 2.865589 34.684324 2.102011 -27.560786 -0.007529 8.297591 23.312492 -0.540642 6.709429 2.059100 -0.015260 -0.529990 -0.184220 19.256932 -7.993196 5.676144 -13.027532 14.267267 -51.577583 74.668906 -56.845337 45.691950 -3.319193 -13.979126 0.125526 -0.247910 0.558150 0.148710 -5.454083 0.318574 -9.563952 16.581795 -14.602877 45.591280 -22.401698 -7.216311 -2.580079 3.013394 -12.882384 -14.482961 -38.584775 19.657125 37.960140 10.663250 -4.431400 -13.348910 -13.912027 -6.802602 5.764562 -43.932226 10.230164 -15.287898 -88.239651 -49.295925 32.558599 -3.499799 3.234760 0.987270 -0.141860 -0.055300 0.163670 8.429319 13.169997 8.378040 55.793148 -2.642319 -17.210451 74.297543 40.066320 18.653447 2.167252 -1.396399 -0.483650 0.579230 0.483190 -0.091260 
-1.133040 17.731920 -3.277880 -24.083112 9.370004 -9.113815 -14.850569 10.121471 2.951972 34.141269 1.902925 -28.836543 -0.504896 8.508891 24.200029 -0.555147 6.781907 2.010801 0.011000 -0.506490 -0.164300 19.224711 -7.894231 5.759168 -16.344085 11.984106 -53.343477 79.157650 -61.901971 44.974360 -3.342895 -13.865617 0.154740 -0.239810 0.535210 0.193100 -5.338973 0.085122 -9.632478 15.352117 -14.079409 46.605728 -21.619204 -7.260581 -2.774015 3.226271 -12.565281 -14.299371 -37.359289 20.015397 38.997687 9.801050 -3.603980 -13.410990 -13.670662 -6.273829 5.553291 -44.355831 10.533499 -15.303469 -88.580194 -48.709488 32.297249 -3.505808 3.270394 0.994900 -0.134470 -0.030770 0.161380 7.746134 12.627890 8.095972 55.677963 -2.068224 -16.598133 75.210933 39.590783 18.938608 2.144878 -1.433252 -0.456930 0.541450 0.479570 -0.100020 
-1.112930 17.678380 -3.324650 -22.434074 10.760676 -8.283531 -14.916947 9.994875 3.120683 32.766062 1.655731 -31.942066 -1.013411 9.053688 26.796257 -0.525649 6.984250 1.951543 0.006720 -0.513610 -0.136780 19.182566 -7.649039 5.951775 -21.275932 9.680282 -53.866619 76.367704 -69.040160 50.899814 -3.416855 -14.024337 0.135039 -0.250330 0.515860 0.164940 -5.163197 -0.260916 -9.785582 13.653246 -12.943301 48.776029 -20.005509 -7.056218 -4.032565 3.272307 -12.475149 -14.157267 -36.384557 19.319610 39.258932 10.031490 -4.035150 -13.670230 -13.443884 -5.040906 5.096211 -45.549135 11.408520 -15.689290 -89.537619 -47.355234 31.720622 -3.476711 3.256296 0.993470 -0.155510 -0.027360 0.153880 7.499476 11.862693 8.106652 55.268486 -3.406859 -16.666516 78.060560 39.761930 20.305457 2.162171 -1.447633 -0.462400 0.547760 0.458510 -0.105810 
-1.079400 17.591580 -3.380720 -21.287898 10.403206 -6.986380 -14.962466 9.674229 3.478393 33.377285 2.215514 -34.122570 -2.804275 10.246827 28.627541 -0.476675 7.541487 1.763030 -0.012490 -0.529750 -0.155230 19.197709 -7.412415 6.021528 -25.059237 9.719268 -53.018780 73.812534 -66.790032 51.865708 -3.390431 -14.052389 0.131751 -0.260000 0.530500 0.153060 -5.104937 -0.171884 -9.975406 13.391058 -11.799950 50.693570 -19.678437 -6.229047 -5.323616 3.240202 -12.615779 -13.515123 -34.985036 18.235161 38.978509 11.014820 -4.579990 -15.612170 -12.709616 -2.385052 4.287747 -46.919386 12.455653 -15.962591 -89.732112 -46.850872 31.720854 -3.466000 3.220415 1.020550 -0.160880 -0.024330 0.157210 6.650795 10.105041 7.670756 55.074383 -3.850780 -16.304130 79.850020 38.821698 20.728451 2.133937 -1.432171 -0.484380 0.580310 0.468030 -0.106350 
-1.052500 17.470690 -3.439720 -20.546267 11.131690 -6.249148 -15.017570 9.436756 3.948704 34.059826 2.580461 -37.276824 -3.331435 11.180849 31.443591 -0.383050 8.073693 1.577439 -0.017930 -0.521010 -0.130720 19.189450 -7.328187 5.866166 -28.005408 9.168340 -50.692800 75.193542 -60.014528 46.451205 -3.202102 -13.453478 0.253989 -0.282040 0.491550 0.171390 -5.012419 -0.102416 -10.136894 13.540244 -11.349794 52.346407 -19.877099 -5.448088 -5.721183 3.752852 -12.193158 -12.818814 -31.329549 15.808669 39.813768 9.672210 -4.000990 -17.429120 -13.276256 -0.721947 3.622963 -46.569768 14.183570 -16.364891 -92.870956 -46.927236 33.756363 -3.451736 3.223086 1.031950 -0.160460 0.011700 0.143810 5.848465 9.119281 7.460816 55.844908 -3.909103 -16.528292 81.580783 38.857654 21.483009 2.120978 -1.444447 -0.462680 0.553320 0.450170 -0.121760 
-1.026360 17.348710 -3.492260 -19.175628 12.038869 -5.878882 -15.068417 9.293583 4.316897 34.150010 2.489869 -40.057882 -3.353333 12.002894 35.082268 -0.361228 8.683061 1.350015 -0.070380 -0.611820 -0.094520 19.163884 -7.294807 5.725188 -30.893230 8.936648 -47.467536 74.297101 -51.904808 41.842240 -2.957265 -12.819303 0.339956 -0.319900 0.476270 0.193360 -4.903853 -0.037806 -10.269778 12.762297 -10.160892 54.555081 -19.336779 -4.243300 -5.830846 3.667310 -11.354987 -11.833056 -27.478749 12.849007 40.888954 9.523360 -4.079050 -19.586190 -13.900247 0.750105 2.760157 -45.643603 14.670751 -16.162273 -95.821508 -46.748809 35.655710 -3.486073 3.198659 1.085900 -0.156710 0.020980 0.080990 6.270538 7.760377 7.088798 55.453094 -4.629423 -16.948456 82.696822 39.297109 22.250159 2.114515 -1.392938 -0.502810 0.543030 0.494910 -0.174670 
-1.012640 17.206770 -3.527260 -17.654571 12.341827 -5.278412 -15.128454 9.195808 4.649095 34.801955 2.590469 -41.898244 -3.444502 12.855647 38.265975 -0.313372 9.251122 1.127571 -0.051570 -0.618390 -0.012180 19.121112 -7.268829 5.563889 -33.026182 9.401302 -43.826813 71.297150 -43.076994 37.651767 -2.702271 -12.062646 0.448371 -0.318550 0.414190 0.217410 -4.764271 0.018828 -10.381028 11.679685 -8.160353 55.933438 -18.226531 -2.338134 -5.325507 3.273340 -10.043992 -10.595921 -23.351552 9.602787 41.921655 9.571870 -4.085570 -22.268520 -14.451989 2.212952 1.680671 -44.157730 13.864809 -15.478540 -97.370210 -45.600985 35.934197 -3.475400 3.222473 1.132280 -0.179220 0.055540 0.037700 7.253008 5.965672 6.456139 54.811602 -5.437586 -17.426316 83.179371 40.175975 23.007019 2.118533 -1.380788 -0.508360 0.507070 0.488750 -0.228110 
-1.011010 17.035530 -3.547550 -15.888282 12.602009 -4.751597 -15.203114 9.184122 4.976946 35.730163 2.521115 -42.835636 -4.597480 13.938485 40.811913 -0.225001 9.824426 0.927836 -0.060480 -0.638950 0.034480 19.040251 -7.291032 5.329669 -34.447868 9.929520 -39.221179 66.861504 -34.007487 32.946895 -2.374454 -11.046666 0.651970 -0.335270 0.384220 0.229320 -4.559024 -0.024509 -10.450129 9.639764 -5.895324 57.400673 -16.578840 -0.557705 -5.415730 2.878895 -8.311818 -9.988012 -19.050347 7.195414 42.913566 9.808260 -3.475400 -23.559280 -15.627682 2.089551 1.461734 -43.130487 14.573054 -15.705580 -99.138650 -44.347457 35.567506 -3.471771 3.217474 1.162690 -0.185460 0.080840 0.009330 9.063015 5.579531 6.110943 54.277894 -6.319588 -18.448094 82.716712 41.200940 23.120254 2.143751 -1.339606 -0.517110 0.487400 0.484730 -0.262890 
-1.018170 16.823530 -3.543050 -13.907875 12.727359 -3.807412 -15.261497 9.169441 5.269768 36.837691 2.482717 -43.051210 -6.557097 15.095700 42.034657 -0.167161 10.283843 0.756980 -0.042430 -0.600210 0.055790 18.967913 -7.386796 5.053029 -35.172190 10.168332 -34.905715 60.708271 -26.408391 28.786511 -2.029713 -10.007746 0.883498 -0.312330 0.361790 0.241980 -4.394441 0.014939 -10.454575 7.892593 -3.455702 57.042208 -15.063588 1.335012 -4.707561 2.309516 -7.085616 -8.898892 -16.522190 4.653676 43.713771 10.179800 -3.954680 -25.760160 -16.080972 3.053743 0.485034 -42.032138 12.739453 -15.026475 -97.122622 -42.755837 33.139660 -3.482059 3.194950 1.176800 -0.183460 0.106670 -0.004880 10.460929 4.190360 5.309381 54.008480 -6.338581 -18.863916 80.736883 40.906752 21.823250 2.133228 -1.305138 -0.510580 0.485710 0.479370 -0.275880 
-1.030090 16.587370 -3.541470 -11.524562 14.385712 -2.648645 -15.363219 9.170184 5.666739 37.790525 1.521362 -44.347509 -9.211129 16.326292 43.292516 -0.023044 10.732618 0.637091 -0.034340 -0.572540 0.056690 18.855844 -7.404365 4.711568 -35.838376 9.055662 -30.358772 54.625951 -20.398347 23.990107 -1.683143 -8.977891 1.147739 -0.315620 0.362080 0.247530 -4.099063 -0.323217 -10.458226 5.055589 -1.515989 57.074970 -12.500961 2.391196 -4.877294 1.680966 -6.470373 -8.297812 -15.509866 2.997095 43.502893 10.900630 -4.698220 -25.967570 -16.950028 3.530204 -0.026720 -42.058613 11.970680 -14.888532 -94.730621 -41.785506 31.064527 -3.487778 3.191399 1.145360 -0.175880 0.116040 0.009900 12.603741 3.652859 4.913732 52.831766 -7.736516 -19.570649 79.782731 41.034568 21.172882 2.151661 -1.299388 -0.481340 0.474180 0.450760 -0.256170 
-1.030600 16.341310 -3.539780 -9.191375 14.569202 -1.844784 -15.483741 8.956285 6.057259 39.690964 1.387738 -45.084661 -13.208450 18.830076 44.668938 0.177823 11.498961 0.421166 -0.019070 -0.537340 0.055160 18.796474 -7.115874 4.646849 -38.683358 8.072859 -27.989989 53.555421 -17.427424 20.000958 -1.542119 -8.526578 1.281117 -0.300290 0.356470 0.214160 -3.814497 -0.673471 -10.591944 1.814278 0.698366 57.217587 -10.172331 3.441754 -5.052081 1.063477 -6.501505 -8.048726 -16.011519 2.370843 43.839040 11.860700 -5.413970 -26.295210 -18.243114 3.565865 -0.098083 -42.482647 12.437147 -15.149088 -94.072909 -42.278226 31.200862 -3.466878 3.173166 1.135190 -0.186520 0.114010 0.026970 15.198467 4.229646 4.728586 51.388826 -8.552650 -20.049842 77.692126 42.139868 20.879549 2.163459 -1.272358 -0.481360 0.491020 0.422550 -0.247950 
